<?xml version="1.0" encoding="utf-8"?>
<svg viewBox="0 0 453 307" fill="none" xmlns="http://www.w3.org/2000/svg">
  <defs>
    <filter id="filter0_d_498_5193" x="0" y="17" width="438" height="290" filterUnits="userSpaceOnUse" color-interpolation-filters="sRGB">
      <feFlood flood-opacity="0" result="BackgroundImageFix"/>
      <feColorMatrix in="SourceAlpha" type="matrix" values="0 0 0 0 0 0 0 0 0 0 0 0 0 0 0 0 0 0 127 0" result="hardAlpha"/>
      <feOffset dy="2"/>
      <feGaussianBlur stdDeviation="2"/>
      <feComposite in2="hardAlpha" operator="out"/>
      <feColorMatrix type="matrix" values="0 0 0 0 0 0 0 0 0 0 0 0 0 0 0 0 0 0 0.25 0"/>
      <feBlend mode="normal" in2="BackgroundImageFix" result="effect1_dropShadow_498_5193"/>
      <feBlend mode="normal" in="SourceGraphic" in2="effect1_dropShadow_498_5193" result="shape"/>
    </filter>
    <linearGradient id="paint0_linear_498_5193" x1="405" y1="28" x2="186" y2="207.5" gradientUnits="userSpaceOnUse">
      <stop stop-color="#F5FF98"/>
      <stop offset="1" stop-color="#82E1FF"/>
    </linearGradient>
    <linearGradient id="paint1_linear_498_5193" x1="298.082" y1="64.2649" x2="371.78" y2="43.0581" gradientUnits="userSpaceOnUse" gradientTransform="matrix(1.05381, 0, 0, 1.088807, -4.539182, -21.620871)">
      <stop stop-color="white" stop-opacity="0"/>
      <stop offset="1" stop-color="#FDFF6B"/>
    </linearGradient>
    <linearGradient id="paint2_linear_498_5193" x1="317.125" y1="108.833" x2="378.78" y2="63.2287" gradientUnits="userSpaceOnUse" gradientTransform="matrix(1.05381, 0, 0, 1.088807, -4.539182, -21.620871)">
      <stop stop-color="white" stop-opacity="0"/>
      <stop offset="1" stop-color="#FDFF6B"/>
    </linearGradient>
    <linearGradient id="paint3_linear_498_5193" x1="360.737" y1="146.716" x2="401.388" y2="81.6898" gradientUnits="userSpaceOnUse" gradientTransform="matrix(1.05381, 0, 0, 1.088807, -4.539182, -21.620871)">
      <stop stop-color="white" stop-opacity="0"/>
      <stop offset="1" stop-color="#FDFF6B"/>
    </linearGradient>
    <linearGradient id="paint4_linear_498_5193" x1="360.737" y1="146.716" x2="401.388" y2="81.6898" gradientUnits="userSpaceOnUse" gradientTransform="matrix(1.05381, 0, 0, 1.088807, -4.539182, -21.620871)">
      <stop stop-color="white" stop-opacity="0"/>
      <stop offset="1" stop-color="#FDFF6B"/>
    </linearGradient>
    <linearGradient id="paint5_linear_498_5193" x1="426.092" y1="145.304" x2="428.448" y2="79.191" gradientUnits="userSpaceOnUse" gradientTransform="matrix(1.05381, 0, 0, 1.088807, -4.539182, -21.620871)">
      <stop stop-color="white" stop-opacity="0"/>
      <stop offset="1" stop-color="#FDFF6B"/>
    </linearGradient>
    <linearGradient id="paint6_linear_498_5193" x1="306.547" y1="25.599" x2="372.686" y2="24.1857" gradientUnits="userSpaceOnUse" gradientTransform="matrix(1.05381, 0, 0, 1.088807, -4.539182, -21.620871)">
      <stop stop-color="white" stop-opacity="0"/>
      <stop offset="1" stop-color="#FDFF6B"/>
    </linearGradient>
    <linearGradient id="paint7_linear_498_5193" x1="389" y1="25.5" x2="418.5" y2="73" gradientUnits="userSpaceOnUse" gradientTransform="matrix(1.05381, 0, 0, 1.088807, -4.539182, -21.620871)">
      <stop stop-color="white"/>
      <stop offset="1" stop-color="#FFDD00"/>
    </linearGradient>
    <linearGradient id="paint0_linear_498_5351" x1="22.9905" y1="2" x2="22.9905" y2="20.4656" gradientUnits="userSpaceOnUse" gradientTransform="matrix(1, 0, 0, 1, 336.928772, 61.199905)">
      <stop stop-color="#B1DBD1"/>
      <stop offset="1" stop-color="#228F89"/>
    </linearGradient>
    <linearGradient id="paint0_linear_498_5346" x1="41.4605" y1="2" x2="41.4605" y2="38.3791" gradientUnits="userSpaceOnUse" gradientTransform="matrix(0.891007, 0, 0, 0.972386, 256.491004, 35.643811)">
      <stop stop-color="#B1DBD1"/>
      <stop offset="1" stop-color="#228F89"/>
    </linearGradient>
    <linearGradient id="paint0_linear_498_5341" x1="27.5464" y1="1.70508" x2="27.5464" y2="24.6418" gradientUnits="userSpaceOnUse" gradientTransform="matrix(0.971189, 0, 0, 0.941605, 210.459303, 57.446433)">
      <stop stop-color="#B1DBD1"/>
      <stop offset="1" stop-color="#228F89"/>
    </linearGradient>
  </defs>
  <g filter="url(#filter0_d_498_5193)" style="" transform="matrix(1.0538100004196167, 0, 0, 1.0888069868087769, -4.539182321404894, -21.620873141910813)">
    <rect x="4" y="19" width="430" height="282" rx="4" fill="url(#paint0_linear_498_5193)"/>
  </g>
  <path d="M 312.377 35.051 L 407.791 16.678 L 410.972 24.634 L 318.546 55.889 L 312.377 35.051 Z" fill="url(#paint1_linear_498_5193)" style=""/>
  <path d="M 327.775 83.405 L 410.975 31.768 L 416.644 38.075 L 340.597 100.705 L 327.775 83.405 Z" fill="url(#paint2_linear_498_5193)" style=""/>
  <path d="M 369.085 126.301 L 428.18 46.752 L 435.692 50.474 L 387.151 137.543 L 369.085 126.301 Z" fill="url(#paint3_linear_498_5193)" style=""/>
  <path d="M 369.085 126.301 L 428.18 46.752 L 435.692 50.474 L 387.151 137.543 L 369.085 126.301 Z" fill="url(#paint4_linear_498_5193)" style=""/>
  <path d="M 434.674 130.655 L 445.656 44.896 L 452.823 44.333 L 452.862 131.013 L 434.674 130.655 Z" fill="url(#paint5_linear_498_5193)" style=""/>
  <path d="M 324.103 16.467 L 407.254 6.344 L 407.901 -1.052 L 324.017 -2.329 L 324.103 16.467 Z" fill="url(#paint6_linear_498_5193)" style=""/>
  <path fill-rule="evenodd" clip-rule="evenodd" d="M 407.4 -0.934 L 453.868 -0.934 L 453.868 48.521 C 450.372 49.639 446.654 50.24 442.803 50.24 C 422.142 50.24 405.393 32.935 405.393 11.588 C 405.393 7.205 406.099 2.993 407.4 -0.934 Z" fill="url(#paint7_linear_498_5193)" fill-opacity="0.8" style=""/>
  <path d="M 365.427 88.955 L 365.427 81.666 L 361.863 81.666 L 361.863 88.955 L 365.427 88.955 Z" fill="#005454"/>
  <path d="M 340.158 63.2 L 371.258 63.2 L 379.681 81.666 L 349.229 81.666 L 340.158 63.2 Z" fill="url(#paint0_linear_498_5351)" stroke="#0A1010" stroke-width="3"/>
  <path d="M 361.283 63.2 L 370.631 81.342 M 350.002 63.2 L 358.381 81.342 M 375.266 71.947 L 345.138 71.947" stroke="#0C1414" stroke-width="2"/>
  <path d="M 375.266 89.2 L 353.681 89.2" stroke="black" stroke-width="4" stroke-linecap="round"/>
  <path d="M 303.1 86.927 L 303.1 72.962 L 296.846 72.962 L 296.846 86.927 L 303.1 86.927 Z" fill="#005454" style=""/>
  <path d="M 258.744 37.589 L 313.336 37.589 L 328.121 72.964 L 274.667 72.964 L 258.744 37.589 Z" fill="url(#paint0_linear_498_5346)" stroke="#0A1010" stroke-width="3" style=""/>
  <path d="M 295.827 37.589 L 312.235 72.342 M 276.025 37.589 L 290.732 72.342 M 320.371 54.345 L 267.486 54.345" stroke="#0C1414" stroke-width="2" style=""/>
  <path d="M 320.371 87.397 L 282.483 87.397" stroke="black" stroke-width="4" stroke-linecap="round" style=""/>
  <path d="M 243.857 89.174 L 243.857 80.649 L 239.557 80.649 L 239.557 89.174 L 243.857 89.174 Z" fill="#005454" style="transform-origin: 237.212px 64.4911px;"/>
  <path d="M 213.373 59.052 L 250.89 59.052 L 261.052 80.65 L 224.315 80.65 L 213.373 59.052 Z" fill="url(#paint0_linear_498_5341)" stroke="#0A1010" stroke-width="3" style="transform-origin: 237.213px 64.4903px;"/>
  <path d="M 238.857 59.052 L 250.133 80.27 M 225.249 59.052 L 235.356 80.27 M 255.725 69.283 L 219.38 69.283" stroke="#0C1414" stroke-width="2" style="transform-origin: 237.213px 64.4901px;"/>
  <path d="M 255.726 89.462 L 229.687 89.462" stroke="black" stroke-width="4" stroke-linecap="round" style="transform-origin: 237.213px 90.404px;"/>
</svg>