<?xml version="1.0" encoding="utf-8"?>
<svg viewBox="0 0 438 290" fill="none" xmlns="http://www.w3.org/2000/svg">
  <defs>
    <filter id="filter0_d_498_5254" x="0" y="0" width="438" height="290" filterUnits="userSpaceOnUse" color-interpolation-filters="sRGB">
      <feFlood flood-opacity="0" result="BackgroundImageFix"/>
      <feColorMatrix in="SourceAlpha" type="matrix" values="0 0 0 0 0 0 0 0 0 0 0 0 0 0 0 0 0 0 127 0" result="hardAlpha"/>
      <feOffset dy="2"/>
      <feGaussianBlur stdDeviation="2"/>
      <feComposite in2="hardAlpha" operator="out"/>
      <feColorMatrix type="matrix" values="0 0 0 0 0 0 0 0 0 0 0 0 0 0 0 0 0 0 0.25 0"/>
      <feBlend mode="normal" in2="BackgroundImageFix" result="effect1_dropShadow_498_5254"/>
      <feBlend mode="normal" in="SourceGraphic" in2="effect1_dropShadow_498_5254" result="shape"/>
    </filter>
    <linearGradient id="paint0_linear_498_5254" x1="405" y1="11" x2="186" y2="190.5" gradientUnits="userSpaceOnUse">
      <stop stop-color="#FF98F5"/>
      <stop offset="1" stop-color="#85B6FF"/>
    </linearGradient>
    <clipPath id="clip0_498_5502">
      <rect width="59.78" height="72.64" fill="white" transform="matrix(-1 0 0 1 59.7803 0)"/>
    </clipPath>
    <clipPath id="clip1_498_5502">
      <rect width="34" height="41" fill="white" transform="matrix(-1 0 0 1 93.7803 31)"/>
    </clipPath>
    <clipPath id="clip2_498_5502">
      <rect width="20" height="25" fill="white" transform="matrix(-1 0 0 1 116.78 47)"/>
    </clipPath>
  </defs>
  <g filter="url(#filter0_d_498_5254)" style="" transform="matrix(1.0198620557785032, 0, 0, 1.0263350009918213, -4.906582978563993, -1.909255084671237)">
    <rect x="4" y="2" width="430" height="282" rx="4" fill="url(#paint0_linear_498_5254)"/>
    <g clip-path="url(#clip0_498_5502)" transform="matrix(0.933055, 0, 0, 0.872469, 300.090341, 23.413811)" style="">
      <path d="M22.3002 42.1H23.7102V14.27L30.0002 2.92L36.2802 14.27V42.1H37.7002V13.9L30.0002 0L22.3002 13.9V42.1Z" fill="#383838"/>
      <path d="M23.0002 13.3799H36.9902V14.7999H23.0002V13.3799Z" fill="#383838"/>
      <path d="M23.5063 13.5864L37.4434 27.5234L36.4393 28.5275L22.5022 14.5905L23.5063 13.5864Z" fill="#383838"/>
      <path d="M36.4949 13.5799L37.499 14.584L23.5337 28.5493L22.5296 27.5453L36.4949 13.5799Z" fill="#383838"/>
      <path d="M23.523 27.5494L37.5732 41.5996L36.5691 42.6037L22.5189 28.5535L23.523 27.5494Z" fill="#383838"/>
      <path d="M36.4363 27.5242L37.4404 28.5283L23.5599 42.4088L22.5558 41.4047L36.4363 27.5242Z" fill="#383838"/>
      <path d="M8.84988 21.9905H23.0099V20.5705H13.8399L23.3799 14.6905L22.6299 13.4805L8.84988 21.9905Z" fill="#383838"/>
      <path d="M2.04058 38.9097H23.0106V37.4897H7.50059L23.3506 28.6697L22.6606 27.4297L2.04058 38.9097Z" fill="#383838"/>
      <path d="M36.9904 21.9905H51.1504L37.3704 13.4805L36.6204 14.6905L46.1604 20.5705H36.9904V21.9905Z" fill="#383838"/>
      <path d="M36.99 38.9097H57.96L37.34 27.4297L36.65 28.6697L52.5 37.4897H36.99V38.9097Z" fill="#383838"/>
      <path d="M22.3938 41.7381L23.6201 42.4541L6.20415 72.2819L4.97788 71.5659L22.3938 41.7381Z" fill="#383838"/>
      <path d="M37.5954 41.7417L55.0166 71.5664L53.7905 72.2826L36.3693 42.4579L37.5954 41.7417Z" fill="#383838"/>
      <path d="M22.3102 41.1904H37.7002V42.6104H22.3102V41.1904Z" fill="#383838"/>
      <path d="M10.4299 62.1904H49.1299V63.6104H10.4299V62.1904Z" fill="#383838"/>
      <path d="M17.6304 50.1504H42.1104V51.5704H17.6304V50.1504Z" fill="#383838"/>
      <path d="M23.2944 41.4484L42.4004 50.2119L41.8084 51.5026L22.7023 42.7391L23.2944 41.4484Z" fill="#383838"/>
      <path d="M36.7911 41.4496L37.3682 42.7471L18.3543 51.2046L17.7772 49.9072L36.7911 41.4496Z" fill="#383838"/>
      <path d="M18.3262 49.89L49.3936 62.2344L48.8692 63.554L17.8018 51.2096L18.3262 49.89Z" fill="#383838"/>
      <path d="M41.8469 50.1945L42.3574 51.5195L11.1158 63.5559L10.6053 62.2308L41.8469 50.1945Z" fill="#383838"/>
      <path d="M1.67012 71.2197H58.6201V72.6397H1.67012V71.2197Z" fill="#383838"/>
      <path d="M2.04031 31.6797H2.05031C2.47557 31.6797 2.82031 32.0244 2.82031 32.4497V38.7897C2.82031 39.2149 2.47557 39.5597 2.05031 39.5597H2.04031C1.61505 39.5597 1.27031 39.2149 1.27031 38.7897V32.4497C1.27031 32.0244 1.61505 31.6797 2.04031 31.6797Z" fill="#757575"/>
      <path d="M0.0105858 33.1992H4.10059V33.4392H0.0105858V33.1992Z" fill="#D1D1D1"/>
      <path d="M0.0105858 34.6201H4.10059V34.8601H0.0105858V34.6201Z" fill="#D1D1D1"/>
      <path d="M0.0105858 36.0293H4.10059V36.2693H0.0105858V36.0293Z" fill="#D1D1D1"/>
      <path d="M0.0105858 37.4492H4.10059V37.6892H0.0105858V37.4492Z" fill="#D1D1D1"/>
      <path d="M57.7307 31.6797H57.7407C58.166 31.6797 58.5107 32.0244 58.5107 32.4497V38.7897C58.5107 39.2149 58.166 39.5597 57.7407 39.5597H57.7307C57.3055 39.5597 56.9607 39.2149 56.9607 38.7897V32.4497C56.9607 32.0244 57.3055 31.6797 57.7307 31.6797Z" fill="#757575"/>
      <path d="M55.6903 33.1992H59.7803V33.4392H55.6903V33.1992Z" fill="#D1D1D1"/>
      <path d="M55.6903 34.6201H59.7803V34.8601H55.6903V34.6201Z" fill="#D1D1D1"/>
      <path d="M55.6903 36.0293H59.7803V36.2693H55.6903V36.0293Z" fill="#D1D1D1"/>
      <path d="M55.6903 37.4492H59.7803V37.6892H55.6903V37.4492Z" fill="#D1D1D1"/>
      <path d="M50.7005 15.0605H50.7105C51.1357 15.0605 51.4805 15.4053 51.4805 15.8305V22.1705C51.4805 22.5958 51.1357 22.9405 50.7105 22.9405H50.7005C50.2752 22.9405 49.9305 22.5958 49.9305 22.1705V15.8305C49.9305 15.4053 50.2752 15.0605 50.7005 15.0605Z" fill="#757575"/>
      <path d="M48.66 16.5908H52.75V16.8308H48.66V16.5908Z" fill="#D1D1D1"/>
      <path d="M48.66 18.001H52.75V18.241H48.66V18.001Z" fill="#D1D1D1"/>
      <path d="M48.66 19.4209H52.75V19.6609H48.66V19.4209Z" fill="#D1D1D1"/>
      <path d="M48.66 20.8408H52.75V21.0808H48.66V20.8408Z" fill="#D1D1D1"/>
      <path d="M8.91043 15.0605H8.92043C9.34569 15.0605 9.69043 15.4053 9.69043 15.8305V22.1705C9.69043 22.5958 9.34569 22.9405 8.92043 22.9405H8.91043C8.48517 22.9405 8.14043 22.5958 8.14043 22.1705V15.8305C8.14043 15.4053 8.48517 15.0605 8.91043 15.0605Z" fill="#757575"/>
      <path d="M6.8807 16.5908H10.9707V16.8308H6.8807V16.5908Z" fill="#D1D1D1"/>
      <path d="M6.8807 18.001H10.9707V18.241H6.8807V18.001Z" fill="#D1D1D1"/>
      <path d="M6.8807 19.4209H10.9707V19.6609H6.8807V19.4209Z" fill="#D1D1D1"/>
      <path d="M6.8807 20.8408H10.9707V21.0808H6.8807V20.8408Z" fill="#D1D1D1"/>
    </g>
    <g clip-path="url(#clip1_498_5502)" transform="matrix(0.933055, 0, 0, 0.872469, 300.090341, 23.413811)" style="">
      <path d="M72.4629 54.7624H73.2648V39.0544L76.8423 32.6481L80.4141 39.0544V54.7624H81.2217V38.8455L76.8423 31L72.4629 38.8455V54.7624Z" fill="#383838"/>
      <path d="M72.8615 38.5527H80.8184V39.3542H72.8615V38.5527Z" fill="#383838"/>
      <path d="M73.1494 38.6677L81.0762 46.5342L80.5051 47.1009L72.5784 39.2345L73.1494 38.6677Z" fill="#383838"/>
      <path d="M80.5363 38.665L81.1074 39.2317L73.1646 47.1141L72.5935 46.5474L80.5363 38.665Z" fill="#383838"/>
      <path d="M73.1583 46.5492L81.1494 54.4795L80.5783 55.0462L72.5872 47.1159L73.1583 46.5492Z" fill="#383838"/>
      <path d="M80.5031 46.5358L81.0742 47.1025L73.1797 54.9371L72.6086 54.3703L80.5031 46.5358Z" fill="#383838"/>
      <path d="M64.8132 43.4117H72.8667V42.6102H67.6513L73.0771 39.2914L72.6506 38.6084L64.8132 43.4117Z" fill="#383838"/>
      <path d="M60.9404 52.962H72.8672V52.1606H64.0458L73.0605 47.1823L72.6681 46.4824L60.9404 52.962Z" fill="#383838"/>
      <path d="M80.8176 43.4117H88.8711L81.0337 38.6084L80.6071 39.2914L86.033 42.6102H80.8176V43.4117Z" fill="#383838"/>
      <path d="M80.8184 52.962H92.7451L81.0174 46.4824L80.625 47.1823L89.6397 52.1606H80.8184V52.962Z" fill="#383838"/>
      <path d="M72.5164 54.5578L73.2139 54.9619L63.3085 71.7975L62.6111 71.3934L72.5164 54.5578Z" fill="#383838"/>
      <path d="M81.162 54.5599L91.0703 71.3938L90.3729 71.798L80.4646 54.9642L81.162 54.5599Z" fill="#383838"/>
      <path d="M72.4686 54.249H81.2217V55.0505H72.4686V54.249Z" fill="#383838"/>
      <path d="M65.712 66.1018H87.7227V66.9033H65.712V66.1018Z" fill="#383838"/>
      <path d="M69.8074 59.3066H83.7305V60.1081H69.8074V59.3066Z" fill="#383838"/>
      <path d="M73.0289 54.3944L83.8955 59.3408L83.5588 60.0693L72.6922 55.1229L73.0289 54.3944Z" fill="#383838"/>
      <path d="M80.705 54.3954L81.0332 55.1277L70.219 59.9014L69.8908 59.1691L80.705 54.3954Z" fill="#383838"/>
      <path d="M70.2024 59.1595L87.8721 66.127L87.5738 66.8718L69.9042 59.9043L70.2024 59.1595Z" fill="#383838"/>
      <path d="M83.5807 59.3312L83.8711 60.0791L66.1024 66.8727L65.812 66.1248L83.5807 59.3312Z" fill="#383838"/>
      <path d="M60.7297 71.1982H93.1201V71.9997H60.7297V71.1982Z" fill="#383838"/>
    </g>
    <g clip-path="url(#clip2_498_5502)" transform="matrix(0.933055, 0, 0, 0.872469, 300.090341, 23.413811)" style="">
      <path d="M104.241 61.4893H104.713V51.9112L106.817 48.005L108.918 51.9112V61.4893H109.394V51.7839L106.817 47L104.241 51.7839V61.4893Z" fill="#383838"/>
      <path d="M104.476 51.6045H109.156V52.0932H104.476V51.6045Z" fill="#383838"/>
      <path d="M104.645 51.676L109.308 56.4727L108.972 56.8182L104.309 52.0216L104.645 51.676Z" fill="#383838"/>
      <path d="M108.99 51.674L109.326 52.0195L104.654 56.8259L104.318 56.4803L108.99 51.674Z" fill="#383838"/>
      <path d="M104.651 56.4808L109.352 61.3164L109.016 61.662L104.315 56.8264L104.651 56.4808Z" fill="#383838"/>
      <path d="M108.971 56.4728L109.307 56.8184L104.663 61.5955L104.327 61.2499L108.971 56.4728Z" fill="#383838"/>
      <path d="M99.7414 54.5685H104.479V54.0798H101.411L104.603 52.0561L104.352 51.6396L99.7414 54.5685Z" fill="#383838"/>
      <path d="M97.4633 60.3914H104.479V59.9027H99.29L104.593 56.8672L104.362 56.4404L97.4633 60.3914Z" fill="#383838"/>
      <path d="M109.156 54.5685H113.894L109.283 51.6396L109.032 52.0561L112.224 54.0798H109.156V54.5685Z" fill="#383838"/>
      <path d="M109.156 60.3914H116.172L109.273 56.4404L109.042 56.8672L114.345 59.9027H109.156V60.3914Z" fill="#383838"/>
      <path d="M104.272 61.3649L104.683 61.6113L98.8559 71.8769L98.4457 71.6305L104.272 61.3649Z" fill="#383838"/>
      <path d="M109.358 61.3663L115.187 71.6309L114.776 71.8774L108.948 61.6128L109.358 61.3663Z" fill="#383838"/>
      <path d="M104.245 61.1758H109.394V61.6645H104.245V61.1758Z" fill="#383838"/>
      <path d="M100.27 68.4036H113.218V68.8923H100.27V68.4036Z" fill="#383838"/>
      <path d="M102.679 64.2598H110.869V64.7485H102.679V64.2598Z" fill="#383838"/>
      <path d="M104.574 61.2652L110.966 64.2812L110.768 64.7255L104.376 61.7094L104.574 61.2652Z" fill="#383838"/>
      <path d="M109.089 61.2654L109.282 61.7119L102.921 64.6227L102.728 64.1762L109.089 61.2654Z" fill="#383838"/>
      <path d="M102.912 64.1705L113.306 68.4189L113.13 68.8731L102.736 64.6246L102.912 64.1705Z" fill="#383838"/>
      <path d="M110.781 64.2744L110.952 64.7305L100.5 68.8729L100.329 68.4169L110.781 64.2744Z" fill="#383838"/>
      <path d="M97.3394 71.5117H116.393V72.0004H97.3394V71.5117Z" fill="#383838"/>
    </g>
  </g>
</svg>