<?xml version="1.0" encoding="utf-8"?>
<svg viewBox="0 0 438 290" fill="none" xmlns="http://www.w3.org/2000/svg">
  <defs>
    <filter id="filter0_d_498_5226" x="0" y="0" width="438" height="290" filterUnits="userSpaceOnUse" color-interpolation-filters="sRGB">
      <feFlood flood-opacity="0" result="BackgroundImageFix"/>
      <feColorMatrix in="SourceAlpha" type="matrix" values="0 0 0 0 0 0 0 0 0 0 0 0 0 0 0 0 0 0 127 0" result="hardAlpha"/>
      <feOffset dy="2"/>
      <feGaussianBlur stdDeviation="2"/>
      <feComposite in2="hardAlpha" operator="out"/>
      <feColorMatrix type="matrix" values="0 0 0 0 0 0 0 0 0 0 0 0 0 0 0 0 0 0 0.25 0"/>
      <feBlend mode="normal" in2="BackgroundImageFix" result="effect1_dropShadow_498_5226"/>
      <feBlend mode="normal" in="SourceGraphic" in2="effect1_dropShadow_498_5226" result="shape"/>
    </filter>
    <linearGradient id="paint0_linear_498_5226" x1="405" y1="11" x2="186" y2="190.5" gradientUnits="userSpaceOnUse">
      <stop stop-color="#A498FF"/>
      <stop offset="1" stop-color="#FFDE85"/>
    </linearGradient>
    <clipPath id="clip0_498_5358">
      <rect width="104" height="76" fill="white" transform="translate(18 7)"/>
    </clipPath>
  </defs>
  <g filter="url(#filter0_d_498_5226)" style="" transform="matrix(1.0198609828948977, 0, 0, 1.026334047317505, -4.163957243083672, -2.651910145637686)">
    <rect x="4" y="2" width="430" height="282" rx="4" fill="url(#paint0_linear_498_5226)"/>
  </g>
  <g clip-path="url(#clip0_498_5358)" transform="matrix(1.084825038909912, 0, 0, 1.0926560163497925, 264.37308527150975, 18.63532884822274)" style="">
    <path d="M122 76.5061H18V83H122V76.5061Z" fill="#3C4259"/>
    <path d="M26.5085 59.291H23.6777V76.8133H26.5085V59.291Z" fill="#424242"/>
    <path opacity="0.2" d="M26.5085 59.291H23.6777V68.8295H26.5085V59.291Z" fill="black"/>
    <path d="M84.8781 59.291H26.5088V81.6878H84.8781V59.291Z" fill="#787878"/>
    <path d="M81.2425 76.9433H29.3712C28.8082 76.9433 28.3418 76.7165 28.3418 76.425C28.3418 76.1335 28.8082 75.8906 29.3712 75.8906H81.2425C81.8055 75.8906 82.2719 76.1173 82.2719 76.4088C82.2719 76.7003 81.8055 76.9433 81.2425 76.9433Z" fill="#242424"/>
    <path d="M81.2425 72.3759H29.3712C28.8082 72.3759 28.3418 72.1491 28.3418 71.8577C28.3418 71.5662 28.8082 71.3232 29.3712 71.3232H81.2425C81.8055 71.3232 82.2719 71.55 82.2719 71.8415C82.2719 72.133 81.8055 72.3759 81.2425 72.3759Z" fill="#242424"/>
    <path d="M81.2425 67.8095H29.3712C28.8082 67.8095 28.3418 67.5827 28.3418 67.2912C28.3418 66.9997 28.8082 66.7568 29.3712 66.7568H81.2425C81.8055 66.7568 82.2719 66.9836 82.2719 67.2751C82.2719 67.5666 81.8055 67.8095 81.2425 67.8095Z" fill="#242424"/>
    <path d="M81.2425 63.2421H29.3712C28.8082 63.2421 28.3418 63.0154 28.3418 62.7239C28.3418 62.4324 28.8082 62.1895 29.3712 62.1895H81.2425C81.8055 62.1895 82.2719 62.4162 82.2719 62.7077C82.2719 62.9992 81.8055 63.2421 81.2425 63.2421Z" fill="#242424"/>
    <path opacity="0.2" d="M84.8781 59.291H26.5088V71.4206H84.8781V59.291Z" fill="black"/>
    <path d="M115.277 59.291H84.8779V78.6432H115.277V59.291Z" fill="#787878"/>
    <path d="M93.0969 59.291H84.8779V78.6432H93.0969V59.291Z" fill="#333333"/>
    <path opacity="0.2" d="M115.277 59.291H84.8779V69.5582H115.277V59.291Z" fill="black"/>
    <path d="M117.303 37.1377H21.2646V59.2915H117.303V37.1377Z" fill="black"/>
    <path d="M112.881 7H25.7048C22.6327 7 20.1396 9.51012 20.1396 12.6032V35.9879H118.446V12.6032C118.446 9.51012 115.953 7 112.881 7Z" fill="#FFCE47"/>
    <path d="M105.98 23.7776H51.4385V14.6602H95.4929L105.98 23.7776Z" fill="#FF3D3D"/>
    <path d="M49.187 14.6599H32.749V29.1053H49.187V14.6599Z" fill="#FF7D2B"/>
    <path d="M105.98 25.6885H51.4385V29.1055H105.98V25.6885Z" fill="white"/>
    <path opacity="0.2" d="M118.446 22.207H20.1396V35.9884H118.446V22.207Z" fill="black"/>
    <path d="M118.446 34.8545H20.1396V37.1379H118.446V34.8545Z" fill="#383838"/>
    <path d="M116.049 37.834H22.2627V57.2834H116.049V37.834Z" fill="#376466"/>
    <path d="M37.6555 40.668H29.1631V54.9352H37.6555V40.668Z" fill="#2F97A3"/>
    <path d="M34.1972 42.9678H30.0957V52.5224H34.1972V42.9678Z" fill="#0F3236"/>
    <path d="M34.1972 43.4531H30.0957V44.7325H34.1972V43.4531Z" fill="#FF3535"/>
    <path d="M34.1972 44.7324H30.0957V46.3033H34.1972V44.7324Z" fill="#6B0C0C"/>
    <path d="M48.6887 40.668H40.1963V54.9352H48.6887V40.668Z" fill="#2F97A3"/>
    <path d="M45.247 42.9678H41.1455V52.5224H45.247V42.9678Z" fill="#0F3236"/>
    <path d="M45.247 43.4531H41.1455V44.7325H45.247V43.4531Z" fill="#FF3535"/>
    <path d="M45.247 44.7324H41.1455V46.3033H45.247V44.7324Z" fill="#6B0C0C"/>
    <path d="M85.6016 40.668H57.1488C56.2159 40.668 55.46 41.4291 55.46 42.3684V54.9352H87.2905V42.3684C87.2905 41.4291 86.5345 40.668 85.6016 40.668ZM86.4541 54.0769H56.2159V43.4534H86.4541V54.0769Z" fill="#F5F5F5"/>
    <path d="M112.382 42.9678H91.9072V54.9192H112.382V42.9678Z" fill="#8C8C8C"/>
    <path d="M78.7826 44.9268H57.1494V46.8539H78.7826V44.9268Z" fill="#1A3030"/>
    <path d="M83.5435 47.8096H57.1494V49.7367H83.5435V47.8096Z" fill="#1A3030"/>
    <path d="M83.5435 50.5789H57.1494V52.506H83.5435V50.5789Z" fill="#1A3030"/>
    <path opacity="0.2" d="M116.049 47.1777H22.2627V57.283H116.049V47.1777Z" fill="black"/>
    <path opacity="0.2" d="M69.3245 39.4853C94.5345 39.4853 114.971 39.2678 114.971 38.9995C114.971 38.7312 94.5345 38.5137 69.3245 38.5137C44.1145 38.5137 23.6777 38.7312 23.6777 38.9995C23.6777 39.2678 44.1145 39.4853 69.3245 39.4853Z" fill="white"/>
    <path d="M113.443 10.6114C113.443 11.1296 93.9813 11.5507 69.9837 11.5507C45.9862 11.5507 26.5244 11.1296 26.5244 10.6114C26.5244 10.0932 45.9862 9.67212 69.9837 9.67212C93.9813 9.67212 113.443 10.0932 113.443 10.6114Z" fill="white"/>
  </g>
  <circle cx="199.342" cy="72.729" r="11.162" fill="white" style="" transform="matrix(1.7008459568023682, 0, 0, 1.7131280899047854, -55.693383922975755, -86.83677932133605)"/>
  <path d="M 280.102 27.375 L 290.952 27.375 L 286.071 33.93 L 292.577 33.93 L 275.22 48.685 L 282.273 37.211 L 276.849 39.395 L 280.102 27.375 Z" fill="#F4B725" stroke="#FFCE47" style="" transform="matrix(1, 0, 0, 1, -2.842170943040401e-14, 0)"/>
</svg>