<svg width="291" height="260" xmlns="http://www.w3.org/2000/svg">
  <defs>
    <linearGradient id="a" x1=".5" x2=".5" y1="0" y2="1">
      <stop stop-color="#B5E9FF"/>
      <stop offset="1" stop-color="#F1F8DD"/>
    </linearGradient>
  </defs>
  <g class="layer">
    <path d="M292 261H1V1h291z" fill="url(#a)"/>
    <svg height="87" viewBox="0 0 284 87" width="284" x="11" xmlns="http://www.w3.org/2000/svg" y="175">
      <g clip-path="url(#a)">
        <path clip-rule="evenodd" d="M10.28 30.23a.61.61 0 0 0-.32-.73.62.62 0 0 0-.78.19L.12 42.09a.62.62 0 0 0-.05.65c.1.2.32.33.55.33h7.32L2.32 56.32a.62.62 0 0 0 1.06.61c4.08-5.34 11.14-14.59 13.45-17.63a.62.62 0 0 0 .06-.65.61.61 0 0 0-.55-.34H7.93s1.36-4.7 2.35-8.08m5.13 24.73a.61.61 0 0 0-.33-.73.62.62 0 0 0-.77.19c-1.68 2.31-3.95 5.41-5.09 6.97a.61.61 0 0 0-.05.64c.11.21.32.34.55.34h4.46s-1.68 3.96-3.09 7.3a.62.62 0 0 0 1.06.61c2.59-3.39 6.15-8.07 7.69-10.08a.62.62 0 0 0 .06-.65.61.61 0 0 0-.56-.34h-5.17s.64-2.21 1.24-4.25m6.56-21.35 4.85-3.56v-2.3l-6.71 4.93a1.54 1.54 0 0 0 .92 2.79h5.79v-1.86zm4.85 5.56-6.71 4.93a1.54 1.54 0 0 0 .92 2.79h5.79v-1.86h-4.85l4.85-3.55zm24.33-5.56h-4.84v1.86h5.79a1.54 1.54 0 0 0 .92-2.79l-6.71-4.93v2.3zm-4.84 5.56v2.31l4.84 3.55h-4.84v1.86h5.79a1.54 1.54 0 0 0 .92-2.79z" fill="#415075" fill-rule="evenodd"/>
        <path clip-rule="evenodd" d="m29.69 24.2-.01.01a3.4 3.4 0 0 0-1 2.4v27.13l-8.06 26.99a.93.93 0 0 0 .63 1.15.93.93 0 0 0 1.16-.63l2.95-9.86h22.42l2.94 9.86a.93.93 0 0 0 1.79-.52l-8.06-26.99V26.61a3.41 3.41 0 0 0-3.42-3.4H32.1a3.4 3.4 0 0 0-2.41.99m-2.64 45.34h19.03l-9.51-8.69zm10.89-9.95 8.67 7.93-3.72-12.46zm-11.43 7.93 8.68-7.93-4.96-4.53-3.72 12.45zM32 54.16l4.56 4.17 4.56-4.16zm-.24-1.85h9.38l-4.69-4.99zm5.97-6.35 4.85 5.17V40.8l-4.85 5.17zm-7.18 4.93 4.63-4.93-4.63-4.92zm1.21-11.28 4.69 4.99 4.7-4.99zm0-1.85h9.39l-4.69-5zm10.79-11.48-4.81 5.12 4.84 5.18v-9.97q0-.17-.03-.33m-11.99.16q-.01.08-.01.17v9.73l4.64-4.94-4.63-4.95zm10.58-1.37-.11-.01H32.1q-.13 0-.27.03l4.64 4.95z" fill="#415075" fill-rule="evenodd"/>
        <path clip-rule="evenodd" d="M280.28 85.27C185.75 75.9 164.19 6.61 121.45 36.7 87.7 60.45 62.47 86.51 62.47 86.51L281.4 87c-2.74-.37 3.43-1.27-1.12-1.73" fill="#B2D693" fill-rule="evenodd"/>
        <path d="M280 86.51a4 4 0 0 0 4-4V32.26s-24.28-6.66-48.57 3.94-61.95 46.61-84.25 47.59c-9.95.44-21.23 1.67-32.9 2.71z" fill="#8AD68B"/>
        <path clip-rule="evenodd" d="m164.55 86.51-2.16-.69-5.78-4.39s-2.04-2.37-3.05-2.71c-1.02-.34-2.81-4.42-6.88-3.41s-2.97 3.07-4.33 4.43c-1.36 1.35-6.11-1.01-6.11-1.01s-6.8-3.72-10.53-4.06c-3.74-.34-6.8 4.73-6.8 4.73s-3.73 3.04-12.57 3.72c-5.19.4-8.73 2.07-10.76 3.39zm105.59 0q.03-.34.01-.69l-.23-1.75a6.6 6.6 0 0 0-1.71-2.91c-.44-.35-.89-.69-1.34-1.03a6.6 6.6 0 0 0-3.34-.9h-.61a9.65 9.65 0 0 0-4.37-6.26c-2.74-1.68-6.12-1.73-8.88-.35-1.04-1.14-2.33-2.03-3.88-2.45-.08-.03-.15-.04-.23-.06.27-2.78-.44-5.68-1.99-7.98-1.57-2.32-3.79-4.28-6.61-4.87-2.37-.5-5.04-.28-7.35.42-4.71 1.42-8.56 5.58-8.58 10.43a6.6 6.6 0 0 0-2.59-.53q-1.65-.14-3.3-.29c-.53-.04-1.11.04-1.68.2a6.7 6.7 0 0 0-1.06-1.38l-.14-.13a5 5 0 0 0-2.13-1.37 5 5 0 0 0-2.55-.57 5 5 0 0 0-2.56.57 5 5 0 0 0-2.13 1.37l-1.03 1.33a6.5 6.5 0 0 0-.86 2.57 9 9 0 0 0-2.57-1.2c-4.66-1.32-9.39.64-12.03 4.59-1.37 2.05-1.88 4.42-1.74 6.79-3.34.13-6.47 3.03-6.39 6.45z" fill="#29754F" fill-rule="evenodd"/>
        <path clip-rule="evenodd" d="M122.61 3.94a5.8 5.8 0 0 0-2.71.69c-1.32-2.71-4-4.63-7.3-4.63-2.49 0-4.91 1.27-6.47 3.19a7.2 7.2 0 0 0-3.26-.77c-3.88 0-7.61 3.41-7.43 7.4.18 4.01 3.27 7.39 7.43 7.39 1.97 0 3.89-.86 5.29-2.24a7.9 7.9 0 0 0 4.44 1.35c2.15 0 4.26-.95 5.8-2.45a5.73 5.73 0 0 0 4.21 1.83c3.09 0 6.05-2.7 5.91-5.88-.15-3.18-2.6-5.88-5.91-5.88m67.01 5.02a4.3 4.3 0 0 0-1.72.33c-1.12-2.23-3.34-3.81-6.07-3.81-2.89 0-5.68 2.04-6.57 4.76-.69-.46-1.56-.74-2.6-.74-6.13 0-6.14 9.48 0 9.48 1.96 0 3.29-.97 3.99-2.29 1.24 1.48 3.05 2.44 5.18 2.44s4.04-1.02 5.34-2.58c.63.47 1.44.75 2.45.75 5.39 0 5.4-8.34 0-8.34" fill="#fff" fill-rule="evenodd"/>
      </g>
    </svg>
  </g>
</svg>
